<svg xmlns="http://www.w3.org/2000/svg" viewBox="0 0 556.2 463.72">
  <defs>
    <style>
      .a {
        font-size: 37.95px;
        font-family: GothamBlack, Gotham Black;
        letter-spacing: 0.04em;
      }

      .b {
        letter-spacing: 0.03em;
      }

      .c {
        letter-spacing: 0.04em;
      }

      .d {
        letter-spacing: 0.04em;
      }

      .e {
        letter-spacing: 0.06em;
      }

      .f {
        letter-spacing: 0.05em;
      }

      .g {
        letter-spacing: 0.03em;
      }

      .h {
        letter-spacing: 0.04em;
      }

      .i {
        letter-spacing: 0.06em;
      }

      .j {
        letter-spacing: 0.05em;
      }

      .k {
        letter-spacing: 0.05em;
      }

      .l {
        letter-spacing: 0.03em;
      }

      .m {
        letter-spacing: 0.06em;
      }

      .n {
        letter-spacing: 0.04em;
      }
    </style>
  </defs>
  <title>ocadu-logo-vector</title>
  <path d="M493.66,600.3V476.91H694.88V136.57H354.69V245.49h-216V476.91h216V600.3Zm-339.76-139V261.08H354.69V461.32ZM478.43,584.7H369.92V476.91H478.43ZM679.29,461.32H369.92V152.16H679.29Z" transform="translate(-138.68 -136.57)"/>
  <path d="M211.85,346A30.64,30.64,0,0,1,200,343.7a29.35,29.35,0,0,1-9.41-6.13,28.17,28.17,0,0,1-6.2-9.1,27.6,27.6,0,0,1-2.27-11.14v-.16A28,28,0,0,1,184.37,306a28.31,28.31,0,0,1,6.28-9.18,29.73,29.73,0,0,1,9.49-6.16,32.38,32.38,0,0,1,23.72,0,29.24,29.24,0,0,1,9.41,6.13,28.12,28.12,0,0,1,6.2,9.09A27.75,27.75,0,0,1,241.73,317v.16a28.31,28.31,0,0,1-8.54,20.36,29.86,29.86,0,0,1-9.5,6.17A30.49,30.49,0,0,1,211.85,346Zm.11-13.84a14.07,14.07,0,0,0,5.79-1.18,13.37,13.37,0,0,0,4.44-3.21A15,15,0,0,0,225,323a15.74,15.74,0,0,0,1-5.69v-.16a15.79,15.79,0,0,0-1-5.7,14.63,14.63,0,0,0-2.93-4.74,14.48,14.48,0,0,0-4.53-3.28,13.34,13.34,0,0,0-5.78-1.23,13.63,13.63,0,0,0-5.75,1.19,13.82,13.82,0,0,0-7.29,7.91,16.29,16.29,0,0,0-1,5.69v.16a16,16,0,0,0,1,5.7,14.9,14.9,0,0,0,2.89,4.73,14,14,0,0,0,4.48,3.29A13.47,13.47,0,0,0,212,332.11Z" transform="translate(-138.68 -136.57)"/>
  <path d="M299.2,346a29.24,29.24,0,0,1-11.15-2.14,27.37,27.37,0,0,1-9.05-6,28.87,28.87,0,0,1-8.35-20.52v-.16A28.9,28.9,0,0,1,279,296.73a27.72,27.72,0,0,1,9.21-6.13,30.27,30.27,0,0,1,11.66-2.21,33,33,0,0,1,7.75.83,25.75,25.75,0,0,1,11.59,6,31,31,0,0,1,4.15,4.67l-11.55,8.95a20,20,0,0,0-5.21-4.76,13.07,13.07,0,0,0-6.88-1.74,12.17,12.17,0,0,0-5.33,1.15,12.58,12.58,0,0,0-4.16,3.12,15,15,0,0,0-2.73,4.67,16.52,16.52,0,0,0-1,5.69v.16a17.17,17.17,0,0,0,1,5.81,14.79,14.79,0,0,0,2.73,4.7,12.61,12.61,0,0,0,4.16,3.13,12.16,12.16,0,0,0,5.33,1.14,15,15,0,0,0,3.91-.47,11.66,11.66,0,0,0,3.24-1.39A16.9,16.9,0,0,0,309.6,328a29.5,29.5,0,0,0,2.57-2.73l11.54,8.23a42.06,42.06,0,0,1-4.31,5,25.12,25.12,0,0,1-5.29,3.94,27.44,27.44,0,0,1-6.65,2.61A33.18,33.18,0,0,1,299.2,346Z" transform="translate(-138.68 -136.57)"/>
  <path d="M273.47,376.15h21.34a40.41,40.41,0,0,1,13.25,2,27.88,27.88,0,0,1,9.8,5.66,24.27,24.27,0,0,1,6.1,8.65,28.72,28.72,0,0,1,2.08,11v.16a28.6,28.6,0,0,1-2.12,11.11,24.79,24.79,0,0,1-6.18,8.8,28.47,28.47,0,0,1-9.92,5.83,39.7,39.7,0,0,1-13.32,2.09h-21Zm21.6,41.75q6.9,0,11.11-3.64c2.81-2.41,4.21-5.88,4.21-10.35v-.16c0-4.44-1.4-7.87-4.21-10.32s-6.51-3.68-11.11-3.68H288.8V417.9Z" transform="translate(-138.68 -136.57)"/>
  <path d="M219.31,376H204.53L181,431.7H197.1l3.55-8.88h22.16l3.62,8.88h16.45Zm-14.19,35,6.68-16.73,6.62,16.73Z" transform="translate(-138.68 -136.57)"/>
  <path d="M424,558.62a33.24,33.24,0,0,1-10.09-1.42,19.61,19.61,0,0,1-7.62-4.37,19.16,19.16,0,0,1-4.82-7.47,30.48,30.48,0,0,1-1.68-10.65V505.36h14.79v29.06c0,3.79.87,6.58,2.6,8.4a9.11,9.11,0,0,0,7,2.73,9.38,9.38,0,0,0,7-2.61c1.73-1.74,2.6-4.46,2.6-8.14V505.36h14.79v29a30.64,30.64,0,0,1-1.76,10.94,19,19,0,0,1-12.63,11.91A33.47,33.47,0,0,1,424,558.62Z" transform="translate(-138.68 -136.57)"/>
</svg>
