<?xml version="1.0" encoding="utf-8"?>
<!-- Generator: Adobe Illustrator 22.1.0, SVG Export Plug-In . SVG Version: 6.00 Build 0)  -->
<svg version="1.1" id="Layer_1" xmlns="http://www.w3.org/2000/svg" xmlns:xlink="http://www.w3.org/1999/xlink" x="0px" y="0px"
	 viewBox="0 0 879.5 466.7" style="enable-background:new 0 0 879.5 466.7;" xml:space="preserve">
<style type="text/css">
	.st0{fill:none;stroke:#231F20;stroke-width:1.42;stroke-miterlimit:10;}
	.st1{fill:#FFFFFF;stroke:#231F20;stroke-width:1.42;stroke-miterlimit:10;}
	.st2{fill:none;stroke:#231F20;stroke-width:0.99;stroke-miterlimit:10;}
	.st3{fill:#231F20;}
	.st4{fill:none;stroke:#231F20;stroke-width:0.99;stroke-miterlimit:10;stroke-dasharray:5.58,5.58;}
	.st5{fill:none;stroke:#231F20;stroke-width:0.99;stroke-miterlimit:10;stroke-dasharray:5.75,5.75;}
	.st6{font-family:'OpenSans';}
	.st7{font-size:12px;}
</style>
<title>system</title>
<g>
	<path class="st0" d="M29.5,213.8V255h0.1c1.3,5.8,13.2,10.2,27.8,10.2s26.5-4.5,27.8-10.2h0.1v-41.2H29.5z"/>
	<ellipse class="st1" cx="57.3" cy="213.8" rx="27.9" ry="11.2"/>
</g>
<g>
	<path class="st0" d="M168.7,213.8V255h0.1c1.3,5.8,13.2,10.2,27.8,10.2s26.5-4.5,27.8-10.2h0.1v-41.2H168.7z"/>
	<ellipse class="st1" cx="196.6" cy="213.8" rx="27.9" ry="11.2"/>
</g>
<g>
	<line class="st2" x1="85.7" y1="234.5" x2="162.1" y2="234.5"/>
	<polygon class="st3" points="159.3,238.2 160.8,234.5 159.3,230.9 168,234.5 	"/>
</g>
<line class="st2" x1="224.4" y1="234.5" x2="259.9" y2="234.5"/>
<g>
	<polyline class="st2" points="288.6,187.2 259.6,187.2 259.6,282.3 288.9,282.3 	"/>
	<polygon class="st3" points="285.8,183.6 287.4,187.2 285.8,190.9 294.5,187.2 	"/>
	<polygon class="st3" points="286.1,285.9 287.6,282.3 286.1,278.6 294.8,282.3 	"/>
</g>
<g>
	<polyline class="st2" points="371.7,187.5 436.1,187.5 494,187.5 	"/>
	<polygon class="st3" points="491.3,191.2 492.8,187.5 491.3,183.8 500,187.5 	"/>
</g>
<g>
	<polyline class="st2" points="493.2,282.3 447.1,282.3 447.1,187.5 	"/>
	<polygon class="st3" points="490.5,278.6 492,282.3 490.5,285.9 499.2,282.3 	"/>
</g>
<rect x="499.4" y="158.9" class="st0" width="127.2" height="57.2"/>
<rect x="499.4" y="254.1" class="st0" width="127.2" height="57.2"/>
<rect x="688.5" y="203" class="st0" width="142" height="63.9"/>
<rect x="294.5" y="158.4" class="st0" width="77.2" height="58.3"/>
<rect x="294.5" y="253" class="st0" width="77.2" height="58.3"/>
<g>
	<polyline class="st2" points="333.5,90.9 333.5,64.9 757.5,64.9 757.5,197 	"/>
	<polygon class="st3" points="753.8,194.2 757.5,195.8 761.2,194.2 757.5,202.9 	"/>
</g>
<line class="st2" x1="562.1" y1="65.6" x2="562.1" y2="90.3"/>
<g>
	<polyline class="st2" points="422.8,375.5 422.8,378.3 420,378.3 	"/>
	<line class="st4" x1="414.4" y1="378.3" x2="249.8" y2="378.3"/>
	<polyline class="st2" points="247,378.3 244.1,378.3 244.1,375.5 	"/>
	<line class="st5" x1="244.1" y1="369.7" x2="244.1" y2="96.7"/>
	<polyline class="st2" points="244.1,93.8 244.1,90.9 247,90.9 	"/>
	<line class="st4" x1="252.6" y1="90.9" x2="417.2" y2="90.9"/>
	<polyline class="st2" points="420,90.9 422.8,90.9 422.8,93.8 	"/>
	<line class="st5" x1="422.8" y1="99.5" x2="422.8" y2="372.6"/>
</g>
<g>
	<polyline class="st2" points="653.5,375.5 653.5,378.3 650.6,378.3 	"/>
	<line class="st4" x1="645.1" y1="378.3" x2="480.4" y2="378.3"/>
	<polyline class="st2" points="477.6,378.3 474.8,378.3 474.8,375.5 	"/>
	<line class="st5" x1="474.8" y1="369.7" x2="474.8" y2="96.7"/>
	<polyline class="st2" points="474.8,93.8 474.8,90.9 477.6,90.9 	"/>
	<line class="st4" x1="483.2" y1="90.9" x2="647.8" y2="90.9"/>
	<polyline class="st2" points="650.6,90.9 653.5,90.9 653.5,93.8 	"/>
	<line class="st5" x1="653.5" y1="99.5" x2="653.5" y2="372.6"/>
</g>
<text transform="matrix(1 0 0 1 105.48 223.28)" class="st3 st6 st7">convert</text>
<text transform="matrix(1 0 0 1 184.7935 245.5146)" class="st3 st6 st7">json</text>
<text transform="matrix(1 0 0 1 47.7554 245.5148)" class="st3 st6 st7">csv</text>
<text transform="matrix(1 0 0 1 299.48 115.28)" class="st3 st6 st7">d3 tree data</text>
<text transform="matrix(1 0 0 1 524.34 115.28)" class="st3 st6 st7">bipartite data</text>
<text transform="matrix(1 0 0 1 524.37 286.24)" class="st3 st6 st7">attribute links</text>
<text transform="matrix(1 0 0 1 724.95 238.46)" class="st3 st6 st7">visualization</text>
<text transform="matrix(1 0 0 1 519.89 191.02)" class="st3 st6 st7">attribute nodes</text>
<text transform="matrix(1 0 0 1 315.91 191.07)" class="st3 st6 st7">nodes</text>
<text transform="matrix(1 0 0 1 320.39 285.64)" class="st3 st6 st7">links</text>
<text transform="matrix(1 0 0 1 429.64 176.02)" class="st3 st6 st7">extract</text>
</svg>
