<svg xmlns="http://www.w3.org/2000/svg" viewBox="0 0 375.49 310.37">
  <defs>
    <style>
      .a, .b {
        stroke: #000;
        stroke-miterlimit: 10;
      }

      .a {
        stroke-width: 0.25px;
      }

      .b {
        fill: none;
        stroke-width: 0.5px;
      }
    </style>
  </defs>
  <title>horiz-tree-bipartite-canvas</title>
  <g>
    <circle class="a" cx="9.67" cy="106.71" r="9.55"/>
    <circle class="a" cx="154.74" cy="106.71" r="9.55"/>
    <circle class="a" cx="154.74" cy="26.72" r="9.55"/>
    <circle class="a" cx="154.74" cy="236.01" r="9.55"/>
    <circle class="a" cx="298.78" cy="106.71" r="9.55"/>
    <circle class="a" cx="298.78" cy="139.17" r="9.55"/>
    <circle class="a" cx="298.78" cy="171.36" r="9.55"/>
    <circle class="a" cx="298.78" cy="203.69" r="9.55"/>
    <circle class="a" cx="298.78" cy="9.67" r="9.55"/>
    <circle class="a" cx="298.78" cy="42.32" r="9.55"/>
    <circle class="a" cx="298.78" cy="74.52" r="9.55"/>
    <circle class="a" cx="298.78" cy="236.01" r="9.55"/>
    <circle class="a" cx="298.78" cy="268.37" r="9.55"/>
    <circle class="a" cx="298.78" cy="300.7" r="9.55"/>
    <circle class="a" cx="362.4" cy="144.83" r="12.96"/>
    <circle class="a" cx="362.4" cy="188.89" r="12.96"/>
    <circle class="a" cx="362.4" cy="232.6" r="12.96"/>
    <circle class="a" cx="362.4" cy="13.09" r="12.96"/>
    <circle class="a" cx="362.4" cy="57.41" r="12.96"/>
    <circle class="a" cx="362.4" cy="101.12" r="12.96"/>
    <line class="b" x1="29.63" y1="106.71" x2="134.17" y2="106.71"/>
    <line class="b" x1="174.47" y1="106.71" x2="279.04" y2="106.71"/>
    <line class="b" x1="174.47" y1="236.01" x2="279.04" y2="236.01"/>
    <line class="b" x1="174.47" y1="26.72" x2="226.76" y2="26.72"/>
    <line class="b" x1="81.92" y1="25.98" x2="134.17" y2="25.98"/>
    <line class="b" x1="81.92" y1="236.01" x2="134.17" y2="236.01"/>
    <line class="b" x1="226.76" y1="7.78" x2="226.76" y2="44.18"/>
    <line class="b" x1="226.76" y1="72.72" x2="226.76" y2="140.99"/>
    <line class="b" x1="226.76" y1="169.57" x2="226.76" y2="302.49"/>
    <line class="b" x1="81.92" y1="24.31" x2="81.92" y2="237.68"/>
    <line class="b" x1="226.76" y1="9.67" x2="279.04" y2="9.67"/>
    <line class="b" x1="226.76" y1="42.32" x2="279.04" y2="42.32"/>
    <line class="b" x1="226.76" y1="74.52" x2="279.04" y2="74.52"/>
    <line class="b" x1="226.76" y1="139.17" x2="279.04" y2="139.17"/>
    <line class="b" x1="226.76" y1="171.36" x2="279.04" y2="171.36"/>
    <line class="b" x1="226.76" y1="203.69" x2="279.04" y2="203.69"/>
    <line class="b" x1="227.65" y1="268.37" x2="279.91" y2="268.37"/>
    <line class="b" x1="226.76" y1="300.7" x2="279.04" y2="300.7"/>
    <line class="b" x1="304.97" y1="138.66" x2="354.89" y2="104.44"/>
    <line class="b" x1="308.32" y1="171.36" x2="350.24" y2="19.22"/>
    <line class="b" x1="305.03" y1="41.42" x2="350.24" y2="19.22"/>
    <line class="b" x1="308.32" y1="171.36" x2="349.44" y2="188.89"/>
    <line class="b" x1="308.32" y1="74.52" x2="351.65" y2="93.88"/>
    <line class="b" x1="308.21" y1="265.46" x2="350.24" y2="236.65"/>
    <line class="b" x1="351.65" y1="225.96" x2="308.21" y2="207.21"/>
    <line class="b" x1="352.32" y1="136.19" x2="307.55" y2="109.15"/>
    <line class="b" x1="351.65" y1="50.17" x2="306.84" y2="13.2"/>
  </g>
</svg>
